<?xml version="1.0" standalone="no"?>
<!DOCTYPE svg PUBLIC "-//W3C//DTD SVG 20010904//EN"
 "http://www.w3.org/TR/2001/REC-SVG-20010904/DTD/svg10.dtd">
<svg version="1.0" xmlns="http://www.w3.org/2000/svg"
 width="246.000000pt" height="246.000000pt" viewBox="0 0 246.000000 246.000000"
 preserveAspectRatio="xMidYMid meet">

<g transform="translate(0.000000,246.000000) scale(0.100000,-0.100000)"
fill="#000000" stroke="none">
<path d="M965 2031 c-101 -48 -181 -149 -200 -253 l-7 -38 -138 0 c-112 0
-140 -3 -150 -15 -10 -12 -19 -151 -36 -503 -12 -268 -25 -540 -28 -604 -5
-98 -3 -119 10 -132 13 -13 43 -16 169 -16 162 0 185 6 185 49 0 35 -21 41
-147 41 l-123 0 0 43 c0 73 41 981 46 1015 l5 32 104 0 105 0 0 -68 c0 -72 10
-92 45 -92 35 0 45 20 45 92 l0 68 255 0 255 0 0 -64 c0 -69 14 -96 50 -96 31
0 50 39 50 102 l0 58 104 0 104 0 6 -37 c3 -21 15 -123 27 -228 12 -104 26
-196 31 -202 14 -18 53 -16 68 3 11 12 9 60 -14 267 -16 139 -32 260 -37 269
-8 15 -29 18 -151 20 l-142 3 -11 45 c-30 115 -111 212 -210 249 -86 32 -193
29 -270 -8z m228 -77 c28 -10 65 -34 91 -60 37 -37 76 -111 76 -145 0 -5 -112
-8 -250 -8 -243 0 -250 0 -250 20 0 33 29 92 63 128 69 73 173 98 270 65z"/>
<path d="M1051 1230 c-57 -12 -154 -58 -216 -102 -28 -20 -69 -45 -92 -57 -23
-12 -48 -31 -54 -43 -14 -26 -13 -322 2 -350 13 -24 61 -48 98 -48 25 0 31 -5
41 -35 37 -111 170 -158 265 -94 35 24 75 84 75 113 0 14 28 16 263 16 l262 0
25 -53 c38 -80 112 -118 196 -103 47 9 111 68 126 117 11 38 12 39 59 39 98 0
132 42 109 134 -43 172 -105 218 -333 246 -87 11 -88 11 -143 64 -67 63 -139
109 -220 137 -49 18 -88 22 -239 25 -99 2 -200 -1 -224 -6z m177 -142 l-3 -53
-180 -2 -180 -3 25 21 c28 23 112 68 150 80 14 4 62 8 108 8 l83 1 -3 -52z
m292 19 c30 -14 70 -37 89 -51 l35 -26 -162 0 -162 0 0 56 0 57 73 -6 c45 -3
92 -14 127 -30z m309 -186 c122 -14 210 -37 238 -63 19 -18 53 -95 53 -120 0
-4 -19 -8 -43 -8 -37 0 -46 4 -57 26 -8 14 -33 37 -56 50 -74 44 -167 27 -220
-40 l-29 -36 -277 0 -277 0 -21 30 c-64 90 -207 93 -276 6 -23 -28 -36 -36
-61 -36 l-33 0 0 106 0 107 483 -6 c265 -4 524 -11 576 -16z m-796 -193 c50
-26 62 -86 27 -130 -61 -78 -181 3 -135 92 23 45 67 60 108 38z m898 -17 c36
-36 38 -80 7 -115 -40 -43 -107 -36 -133 15 -46 88 56 169 126 100z"/>
</g>
</svg>
