<svg width="100" height="26" viewBox="0 0 100 26" fill="none" xmlns="http://www.w3.org/2000/svg">
<g clip-path="url(#clip0_3_149)">
<path d="M5.21834 25.7517H0.744114C0.540441 25.7517 0.345803 25.6672 0.205367 25.5167C0.0649314 25.3671 -0.00898202 25.1647 0.000873113 24.9582L0.893584 5.91451C0.912473 5.51068 1.23933 5.19296 1.63682 5.19296H11.4575C11.8681 5.19296 12.2015 5.53242 12.2015 5.95046C12.2015 6.36851 11.8681 6.70796 11.4575 6.70796H2.34557L1.52349 24.2367H5.21752C5.62815 24.2367 5.96158 24.5761 5.96158 24.9942C5.96158 25.4122 5.62815 25.7517 5.21752 25.7517H5.21834Z" fill="black"/>
<path d="M6.54716 9.30488C6.13653 9.30488 5.8031 8.96543 5.8031 8.54738V5.75567C5.8031 2.58186 8.33915 0 11.4567 0C11.8673 0 12.2007 0.339454 12.2007 0.757501C12.2007 1.17555 11.8681 1.515 11.4567 1.515C9.15959 1.515 7.2904 3.41795 7.2904 5.7565V8.54822C7.2904 8.96627 6.95697 9.30572 6.54634 9.30572L6.54716 9.30488Z" fill="black"/>
<path d="M22.1692 14.4987C21.7972 14.4987 21.4753 14.2144 21.4309 13.829L20.6146 6.70796H11.4567C11.0461 6.70796 10.7126 6.36851 10.7126 5.95046C10.7126 5.53242 11.0461 5.19296 11.4567 5.19296H21.2773C21.6551 5.19296 21.9721 5.48058 22.0165 5.86267L22.9092 13.6534C22.9568 14.0689 22.6645 14.4452 22.2563 14.4937C22.2267 14.497 22.198 14.4987 22.1692 14.4987Z" fill="black"/>
<path d="M16.367 9.3049C15.9564 9.3049 15.623 8.96544 15.623 8.5474V5.75568C15.623 3.41713 13.7538 1.51418 11.4567 1.51418C11.0461 1.51418 10.7126 1.17472 10.7126 0.756677C10.7126 0.33863 11.0453 -0.000823975 11.4567 -0.000823975C14.5742 -0.000823975 17.1103 2.58103 17.1103 5.75484V8.54656C17.1103 8.96461 16.7768 9.30406 16.3662 9.30406L16.367 9.3049Z" fill="black"/>
<path d="M9.6909 25.7517C8.10833 25.7517 6.82141 24.4415 6.82141 22.8304C6.82141 21.2192 8.10833 19.9091 9.6909 19.9091C11.2735 19.9091 12.5604 21.2192 12.5604 22.8304C12.5604 24.4415 11.2735 25.7517 9.6909 25.7517ZM9.6909 21.4241C8.92877 21.4241 8.30954 22.0553 8.30954 22.8304C8.30954 23.6054 8.92959 24.2367 9.6909 24.2367C10.4522 24.2367 11.0723 23.6054 11.0723 22.8304C11.0723 22.0553 10.4522 21.4241 9.6909 21.4241Z" fill="black"/>
<path d="M23.9554 25.7517C22.3729 25.7517 21.0859 24.4415 21.0859 22.8304C21.0859 21.2192 22.3729 19.9091 23.9554 19.9091C25.538 19.9091 26.8249 21.2192 26.8249 22.8304C26.8249 24.4415 25.538 25.7517 23.9554 25.7517ZM23.9554 21.4241C23.1933 21.4241 22.5741 22.0553 22.5741 22.8304C22.5741 23.6054 23.1941 24.2367 23.9554 24.2367C24.7167 24.2367 25.3368 23.6054 25.3368 22.8304C25.3368 22.0553 24.7167 21.4241 23.9554 21.4241Z" fill="black"/>
<path d="M21.83 23.1548H11.8163C11.4057 23.1548 11.0723 22.8153 11.0723 22.3973C11.0723 21.9792 11.4057 21.6398 11.8163 21.6398H21.83C22.2406 21.6398 22.574 21.9792 22.574 22.3973C22.574 22.8153 22.2406 23.1548 21.83 23.1548Z" fill="black"/>
<path d="M22.5346 18.4216C22.5133 18.4216 22.4911 18.4208 22.4697 18.4191C17.6555 17.9944 5.35631 18.2201 5.2323 18.2218C4.82249 18.2302 4.48249 17.8966 4.4751 17.4785C4.46771 17.0605 4.79457 16.7152 5.2052 16.7077C5.71356 16.6985 17.7073 16.4786 22.5987 16.91C23.0077 16.9459 23.3107 17.313 23.2754 17.7302C23.2417 18.1248 22.9173 18.4225 22.5354 18.4225L22.5346 18.4216Z" fill="black"/>
<path d="M14.1355 17.961C13.7249 17.961 13.3915 17.6215 13.3915 17.2035V14.1392C13.3915 13.7211 13.7249 13.3817 14.1355 13.3817C14.5462 13.3817 14.8796 13.7211 14.8796 14.1392V17.2035C14.8796 17.6215 14.5462 17.961 14.1355 17.961Z" fill="black"/>
<path d="M27.808 23.1548H26.0808C25.6702 23.1548 25.3368 22.8153 25.3368 22.3973C25.3368 21.9792 25.6702 21.6398 26.0808 21.6398H27.808C27.8622 21.6398 27.9336 21.6398 28.0001 21.6381C27.9919 21.6005 27.9804 21.557 27.9656 21.5068C27.9426 21.4291 27.9196 21.3488 27.8967 21.2669C27.7012 20.5838 27.4573 19.7326 27.0056 19.3748C26.2788 18.7996 24.2018 18.5621 22.4731 18.4191C22.0542 18.3849 21.6682 18.19 21.3882 17.8707C20.7813 17.1809 18.5926 14.9318 15.921 14.9318C15.6599 14.9318 15.2755 14.9209 14.8312 14.9075C13.5788 14.8716 11.4829 14.8114 10.7356 14.9911C9.38544 15.3164 8.5494 15.9134 7.74045 16.4911C7.16803 16.9008 6.62518 17.2879 5.95996 17.5371C5.95503 17.5596 5.95175 17.5889 5.95175 17.6215V21.4884C5.95175 21.572 6.01827 21.6398 6.1004 21.6398H7.50229C7.91292 21.6398 8.24635 21.9792 8.24635 22.3973C8.24635 22.8153 7.91292 23.1548 7.50229 23.1548H6.1004C5.19783 23.1548 4.46362 22.4073 4.46362 21.4884V17.6215C4.46362 16.9133 4.82251 16.3314 5.37851 16.1399C5.88933 15.9635 6.35088 15.6341 6.88552 15.252C7.72239 14.6534 8.76457 13.9092 10.3931 13.5171C11.2579 13.3089 13.0056 13.3399 14.8731 13.3934C15.3067 13.4059 15.6812 13.4168 15.921 13.4168C17.3369 13.4168 18.7692 13.8917 20.1784 14.8298C21.2929 15.5714 22.1092 16.42 22.496 16.8598C22.5215 16.8882 22.556 16.9058 22.5938 16.9091C23.971 17.0229 24.9344 17.1458 25.7187 17.308C26.7354 17.5178 27.4343 17.7946 27.9196 18.1792C28.7516 18.838 29.0702 19.95 29.3256 20.843C29.3486 20.9216 29.37 20.9993 29.3922 21.0737C29.4636 21.317 29.6804 22.0561 29.2665 22.6213C28.8756 23.1556 28.2334 23.1556 27.808 23.1556V23.1548Z" fill="black"/>
<path d="M34.139 8.57582H36.3803C36.5379 9.95788 37.3116 10.5039 38.9212 10.5039C40.0891 10.5039 41.1148 10.0858 41.1148 9.02564C41.1148 7.90109 40.0414 7.67618 38.3217 7.27402C36.3014 6.80832 34.4552 6.26151 34.4552 3.86778C34.4552 1.60196 36.2702 0.428925 38.78 0.428925C41.2898 0.428925 42.9627 1.69811 43.1359 4.01242H40.9424C40.8159 2.85527 39.9322 2.27669 38.7644 2.27669C37.5333 2.27669 36.7285 2.80677 36.7285 3.62615C36.7285 4.55839 37.5177 4.83096 39.1906 5.20051C41.5107 5.71471 43.4045 6.2774 43.4045 8.7514C43.4045 11.0816 41.5583 12.3826 39.0173 12.3826C35.9557 12.3826 34.2195 11.0005 34.1407 8.57415L34.139 8.57582Z" fill="black"/>
<path d="M46.7495 4.96054H46.7972C47.3811 4.09268 48.0438 3.65875 49.1484 3.65875C50.8213 3.65875 51.9415 4.94382 51.9415 6.74393V12.1267H49.7948V7.06583C49.7948 6.18208 49.2897 5.55584 48.3904 5.55584C47.4435 5.55584 46.7487 6.32672 46.7487 7.4521V12.1275H44.6019V0.637939H46.7487V4.95971L46.7495 4.96054Z" fill="black"/>
<path d="M52.8728 8.01313C52.8728 5.55501 54.5933 3.65875 57.1023 3.65875C59.6112 3.65875 61.3318 5.55501 61.3318 8.01313C61.3318 10.4712 59.6112 12.3675 57.1023 12.3675C54.5933 12.3675 52.8728 10.4712 52.8728 8.01313ZM59.1546 8.01313C59.1546 6.40616 58.413 5.31338 57.1031 5.31338C55.7932 5.31338 55.0516 6.40616 55.0516 8.01313C55.0516 9.6201 55.7776 10.6962 57.1031 10.6962C58.4286 10.6962 59.1546 9.61926 59.1546 8.01313Z" fill="black"/>
<path d="M62.3263 3.88366H64.3934V4.91206H64.441C64.9617 4.18884 65.7197 3.65875 66.8243 3.65875C68.9711 3.65875 70.3443 5.44214 70.3443 8.01313C70.3443 10.5841 68.9235 12.3675 66.8408 12.3675C65.7041 12.3675 64.9625 11.9018 64.5051 11.1945H64.4739V14.8256H62.3271V3.88366H62.3263ZM68.1655 8.07751C68.1655 6.51903 67.6292 5.42625 66.3028 5.42625C64.9765 5.42625 64.4246 6.59929 64.4246 8.07751C64.4246 9.55572 65.103 10.5523 66.3817 10.5523C67.4707 10.5523 68.1655 9.63682 68.1655 8.07751Z" fill="black"/>
<path d="M71.3389 3.88366H73.4068V4.91206H73.4544C73.9751 4.18884 74.7331 3.65875 75.8377 3.65875C77.9845 3.65875 79.3577 5.44214 79.3577 8.01313C79.3577 10.5841 77.9369 12.3675 75.8542 12.3675C74.7175 12.3675 73.9759 11.9018 73.5185 11.1945H73.4873V14.8256H71.3405V3.88366H71.3389ZM77.178 8.07751C77.178 6.51903 76.6417 5.42625 75.3154 5.42625C73.9891 5.42625 73.4372 6.59929 73.4372 8.07751C73.4372 9.55572 74.1156 10.5523 75.3943 10.5523C76.4832 10.5523 77.178 9.63682 77.178 8.07751Z" fill="black"/>
<path d="M80.3506 0.637939H82.4974V2.59858H80.3506V0.637939ZM80.3506 3.88365H82.4974V12.1267H80.3506V3.88365Z" fill="black"/>
<path d="M85.9852 5.00821H86.0328C86.5856 4.12446 87.3272 3.65875 88.4318 3.65875C90.1047 3.65875 91.2249 4.94383 91.2249 6.74394V12.1267H89.0781V7.06583C89.0781 6.18208 88.573 5.55585 87.6737 5.55585C86.7268 5.55585 86.032 6.32673 86.032 7.45211V12.1275H83.8853V3.88366H85.9844V5.00821H85.9852Z" fill="black"/>
<path d="M92.3295 12.3675H94.4599C94.6331 12.8817 95.0914 13.283 96.0851 13.283C97.3006 13.283 97.8845 12.6886 97.8845 11.564V10.6644H97.8369C97.363 11.2103 96.7479 11.6284 95.7221 11.6284C93.9228 11.6284 92.1554 10.182 92.1554 7.69207C92.1554 5.20218 93.6074 3.65875 95.6589 3.65875C96.669 3.65875 97.4106 4.06008 97.9001 4.75153H97.9313V3.88366H99.9993V11.4996C99.9993 12.6568 99.6363 13.4436 99.0367 14.0062C98.3584 14.6492 97.3162 14.9385 96.1172 14.9385C93.908 14.9385 92.5504 13.9745 92.3295 12.3675ZM97.9954 7.64357C97.9954 6.43876 97.3638 5.41037 96.0695 5.41037C94.9805 5.41037 94.2545 6.27823 94.2545 7.65946C94.2545 9.04069 94.9805 9.87678 96.0851 9.87678C97.4427 9.87678 97.9946 8.86427 97.9946 7.64357H97.9954Z" fill="black"/>
<path d="M34.1866 21.6289C34.1866 18.8656 35.7495 17.2587 37.769 17.2587C38.9212 17.2587 39.8049 17.8372 40.3255 18.624H40.3567V14.2696H41.6354V25.7575H40.3567V24.745H40.3255C39.7104 25.5485 38.9524 25.9983 37.8002 25.9983C35.5745 25.9983 34.1858 24.2952 34.1858 21.6281L34.1866 21.6289ZM40.4364 21.6448C40.4364 19.7168 39.5207 18.3673 37.8322 18.3673C36.2858 18.3673 35.4965 19.7812 35.4965 21.6448C35.4965 23.5085 36.2858 24.9064 37.8478 24.9064C39.6628 24.9064 40.4364 23.5243 40.4364 21.6448Z" fill="black"/>
<path d="M42.9142 21.613C42.9142 19.2026 44.4606 17.2428 46.7807 17.2428C49.2272 17.2428 50.5371 19.1708 50.5371 21.9182H44.2241C44.3185 23.6054 45.2186 24.8905 46.8595 24.8905C48.043 24.8905 48.8322 24.3119 49.1163 23.1874H50.363C49.9844 24.9708 48.7057 25.9833 46.8595 25.9833C44.3662 25.9833 42.9142 24.0226 42.9142 21.613ZM44.2553 20.9383H49.164C49.0851 19.2837 48.2483 18.2712 46.7807 18.2712C45.3131 18.2712 44.445 19.4283 44.2553 20.9383Z" fill="black"/>
<path d="M57.7651 14.2704H60.1328L64.1102 25.7584H61.7269L60.9697 23.3161H56.8978L56.1562 25.7584H53.8362L57.7659 14.2704H57.7651ZM57.4333 21.5328H60.4161L59.406 18.2227C59.2163 17.6123 58.9485 16.4552 58.9485 16.4552H58.9173C58.9173 16.4552 58.6332 17.6123 58.4435 18.2227L57.4333 21.5328Z" fill="black"/>
<path d="M69.7604 25.7584V24.7944H69.7127C69.16 25.5494 68.5293 25.9833 67.3927 25.9833C65.5933 25.9833 64.5831 24.8103 64.5831 23.011V17.5162H66.7135V22.6414C66.7135 23.6054 67.1397 24.1355 68.0546 24.1355C69.0647 24.1355 69.6799 23.3646 69.6799 22.2719V17.5162H71.8267V25.7592H69.7587L69.7604 25.7584Z" fill="black"/>
<path d="M72.7432 17.5162H73.8634V14.9452H75.9625V17.5162H77.3513V18.9626H75.9625V23.3329C75.9625 23.9432 76.2943 24.1523 76.7673 24.1523C77.0359 24.1523 77.3989 24.1364 77.3989 24.1364V25.7433C77.3989 25.7433 76.9094 25.7751 76.0578 25.7751C75.0164 25.7751 73.8642 25.3571 73.8642 23.7986V18.9626H72.744V17.5162H72.7432Z" fill="black"/>
<path d="M77.9829 21.6456C77.9829 19.1875 79.7035 17.2913 82.2124 17.2913C84.7214 17.2913 86.4419 19.1875 86.4419 21.6456C86.4419 24.1038 84.7214 26 82.2124 26C79.7035 26 77.9829 24.1038 77.9829 21.6456ZM84.2647 21.6456C84.2647 20.0387 83.5231 18.9459 82.2132 18.9459C80.9033 18.9459 80.1617 20.0387 80.1617 21.6456C80.1617 23.2526 80.8877 24.3287 82.2132 24.3287C83.5387 24.3287 84.2647 23.2518 84.2647 21.6456Z" fill="black"/>
<path d="M86.9313 23.0912H88.9196C89.0617 24.0394 89.7244 24.4566 90.687 24.4566C91.6495 24.4566 92.1702 24.087 92.1702 23.5084C92.1702 22.7208 91.1444 22.6406 90.0398 22.4157C88.5878 22.1264 87.167 21.7251 87.167 19.9249C87.167 18.1248 88.619 17.2896 90.4652 17.2896C92.5956 17.2896 93.7798 18.3665 93.9375 20.0211H91.9961C91.9016 19.1373 91.3489 18.8163 90.4332 18.8163C89.5963 18.8163 89.0444 19.1373 89.0444 19.7318C89.0444 20.4391 90.1178 20.5027 91.27 20.7443C92.6276 21.0336 94.1264 21.419 94.1264 23.3471C94.1264 25.0017 92.7376 25.9983 90.7173 25.9983C88.3661 25.9983 87.0562 24.8412 86.9297 23.0904L86.9313 23.0912Z" fill="black"/>
</g>
<defs>
<clipPath id="clip0_3_149">
<rect width="100" height="26" fill="white"/>
</clipPath>
</defs>
</svg>
